<svg xmlns="http://www.w3.org/2000/svg" width="2002" height="393" viewBox="0 0 2002 393">
  <g id="Footer" transform="translate(0 -4504)">
    <rect id="Rectangle_28" data-name="Rectangle 28" width="1920" height="211" transform="translate(0 4575)" fill="#065a60"/>
    <text id="Jack_Kay" data-name="Jack Kay" transform="translate(175 4645)" fill="#c9f299" font-size="26" font-family="Poppins-Bold, Poppins" font-weight="700"><tspan x="0" y="27">Jack Kay</tspan></text>
    <text id="My_Work" data-name="My Work" transform="translate(526 4649)" fill="#fff" font-size="20" font-family="Poppins-Regular, Poppins"><tspan x="0" y="21">My Work</tspan></text>
    <text id="My_Skills" data-name="My Skills" transform="translate(682 4649)" fill="#fff" font-size="20" font-family="Poppins-Regular, Poppins"><tspan x="0" y="21">My Skills</tspan></text>
    <text id="Contact_Me" data-name="Contact Me" transform="translate(838 4649)" fill="#fff" font-size="20" font-family="Poppins-Regular, Poppins"><tspan x="0" y="21">Contact Me</tspan></text>
    <g id="hero-photos" transform="translate(684.134 4266.134)">
      <rect id="Rectangle_20" data-name="Rectangle 20" width="98" height="98" rx="23" transform="translate(1121.866 237.866)" fill="#065a60"/>
      <rect id="Rectangle_25" data-name="Rectangle 25" width="98" height="98" rx="23" transform="translate(1121.866 434.866)" fill="#065a60"/>
      <rect id="Rectangle_22" data-name="Rectangle 22" width="98" height="99" rx="23" transform="translate(1219.866 335.866)" fill="#f96900" opacity="0.41"/>
      <rect id="Rectangle_21" data-name="Rectangle 21" width="99" height="99" rx="23" transform="translate(1022.866 335.866)" fill="#fff"/>
      <rect id="Rectangle_24" data-name="Rectangle 24" width="99" height="98" rx="23" transform="translate(1022.866 532.866)" fill="#fff"/>
      <rect id="Rectangle_23" data-name="Rectangle 23" width="98" height="98" rx="23" transform="translate(924.866 434.866)" fill="#fff" opacity="0.45"/>
      <ellipse id="Ellipse_2" data-name="Ellipse 2" cx="49" cy="49.5" rx="49" ry="49.5" transform="translate(1121.866 335.866)" fill="#fce762"/>
      <ellipse id="Ellipse_3" data-name="Ellipse 3" cx="49.5" cy="49" rx="49.5" ry="49" transform="translate(1022.866 434.866)" fill="#c9f299"/>
    </g>
  </g>
</svg>
