<svg width="47" height="84" viewBox="0 0 47 84">
  <g id="scroll" transform="translate(-180 -596)">
    <g id="Rectangle_19" data-name="Rectangle 19" transform="translate(180 596)" fill="none" stroke="#fff" stroke-width="6">
      <path d="M22.742,0H23.5A23.5,23.5,0,0,1,47,23.5v37A23.5,23.5,0,0,1,23.5,84h0A23.5,23.5,0,0,1,0,60.5V22.742A22.742,22.742,0,0,1,22.742,0Z" stroke="none"/>
      <path d="M22.768,3H23.5A20.5,20.5,0,0,1,44,23.5v37A20.5,20.5,0,0,1,23.5,81h0A20.5,20.5,0,0,1,3,60.5V22.768A19.768,19.768,0,0,1,22.768,3Z" fill="none"/>
    </g>
    <g id="Ellipse_1" data-name="Ellipse 1" transform="translate(187 606)" fill="#fff" stroke="#707070" stroke-width="1">
      <circle cx="16" cy="16" r="16" stroke="none"/>
      <circle cx="16" cy="16" r="15.5" fill="none"/>
    </g>
  </g>
</svg>
